HIERARCHY
ROOT Hips
{
 OFFSET 0.000000 0.000000 0.000000
 CHANNELS 6 Xposition Yposition Zposition Yrotation Xrotation Zrotation
 JOINT Chest
 {
  OFFSET 0.000000 9.585900 0.002600
  CHANNELS 3 Yrotation Xrotation Zrotation
  JOINT Chest2
  {
   OFFSET 0.000000 9.601200 -0.005300
   CHANNELS 3 Yrotation Xrotation Zrotation
   JOINT Chest3
   {
    OFFSET 0.000000 9.561800 0.000000
    CHANNELS 3 Yrotation Xrotation Zrotation
    JOINT Chest4
    {
     OFFSET 0.000000 9.552100 0.000000
     CHANNELS 3 Yrotation Xrotation Zrotation
     JOINT Neck
     {
      OFFSET 0.000000 14.453000 0.000000
      CHANNELS 3 Yrotation Xrotation Zrotation
      JOINT Head
      {
       OFFSET 0.000000 8.936500 -0.011300
       CHANNELS 3 Yrotation Xrotation Zrotation
       End Site
       {
        OFFSET 0.000000 17.073600 -0.006000
       }
      }
     }
     JOINT RightCollar
     {
      OFFSET -2.921100 9.558500 0.000000
      CHANNELS 3 Yrotation Xrotation Zrotation
      JOINT RightShoulder
      {
       OFFSET -13.519700 0.000000 0.000000
       CHANNELS 3 Yrotation Xrotation Zrotation
       JOINT RightElbow
       {
        OFFSET 0.000000 -29.696600 0.000000
        CHANNELS 3 Yrotation Xrotation Zrotation
        JOINT RightWrist
        {
         OFFSET 0.000000 -24.004700 0.000000
         CHANNELS 3 Yrotation Xrotation Zrotation
         End Site
         {
          OFFSET 0.000000 -17.728500 0.000000
         }
        }
       }
      }
     }
     JOINT LeftCollar
     {
      OFFSET 2.921100 9.558500 0.000000
      CHANNELS 3 Yrotation Xrotation Zrotation
      JOINT LeftShoulder
      {
       OFFSET 13.519700 0.000000 0.000000
       CHANNELS 3 Yrotation Xrotation Zrotation
       JOINT LeftElbow
       {
        OFFSET 0.000000 -29.696600 0.000000
        CHANNELS 3 Yrotation Xrotation Zrotation
        JOINT LeftWrist
        {
         OFFSET 0.000000 -24.004700 0.000000
         CHANNELS 3 Yrotation Xrotation Zrotation
         End Site
         {
          OFFSET 0.000000 -17.728500 0.000000
         }
        }
       }
      }
     }
    }
   }
  }
 }
 JOINT RightHip
 {
  OFFSET -7.771700 -0.012900 -0.001300
  CHANNELS 3 Yrotation Xrotation Zrotation
  JOINT RightKnee
  {
   OFFSET 0.000000 -40.869800 0.001200
   CHANNELS 3 Yrotation Xrotation Zrotation
   JOINT RightAnkle
   {
    OFFSET 0.000000 -39.717900 0.002100
    CHANNELS 3 Yrotation Xrotation Zrotation
    JOINT RightToe
    {
     OFFSET 0.000000 -4.965400 11.033500
     CHANNELS 3 Yrotation Xrotation Zrotation
     End Site
     {
      OFFSET 0.000000 -1.423100 5.872300
     }
    }
   }
  }
 }
 JOINT LeftHip
 {
  OFFSET 7.771700 -0.012900 -0.001300
  CHANNELS 3 Yrotation Xrotation Zrotation
  JOINT LeftKnee
  {
   OFFSET 0.000000 -40.869800 0.001200
   CHANNELS 3 Yrotation Xrotation Zrotation
   JOINT LeftAnkle
   {
    OFFSET 0.000000 -39.717900 0.002100
    CHANNELS 3 Yrotation Xrotation Zrotation
    JOINT LeftToe
    {
     OFFSET 0.000000 -4.965400 11.033500
     CHANNELS 3 Yrotation Xrotation Zrotation
     End Site
     {
      OFFSET 0.000000 -1.423100 5.872300
     }
    }
   }
  }
 }
}
MOTION
Frames: 15
Frame Time: 0.008333
-82.883772 44.264835 20.343624 179.723705 -33.550225 -0.677127 -1.139869 20.178062 1.699273 -0.206163 2.542709 0.290853 -0.321375 4.168451 0.473901 -1.150004 17.327120 1.854889 -1.020110 17.928387 -1.976428 -0.622619 -6.868586 -1.859215 2.865168 0.741246 -9.404113 -13.021162 -6.998726 -7.044929 -149.480338 -59.298074 172.783025 -8.230043 1.457782 -37.237101 -3.630792 -0.485433 -0.662199 18.906702 -0.180570 2.434968 121.416181 -51.424708 -161.070710 20.750001 12.856507 28.460011 -0.016385 -59.459175 5.910257 -140.775326 68.355996 -140.171119 -10.616866 -23.069737 8.219109 0.154065 -0.606577 0.048972 3.121660 -43.587485 -5.406182 175.094616 60.016032 175.074257 -1.696680 -40.174233 3.128759 0.085183 0.327705 0.032413
-82.887760 44.252491 20.346168 179.702453 -33.533347 -0.641016 -1.124297 20.161868 1.677013 -0.198937 2.543546 0.291132 -0.321583 4.167796 0.471431 -1.152916 17.325027 1.855357 -1.022637 17.941273 -1.974093 -0.635532 -6.833892 -1.841999 2.882660 0.735453 -9.418524 -13.009564 -6.969170 -7.013236 -149.417198 -59.347862 172.721056 -8.211924 1.496790 -37.197177 -3.642030 -0.484946 -0.653501 18.884786 -0.182712 2.452538 121.379451 -51.419260 -161.038209 20.752175 12.861549 28.501892 0.023825 -59.475566 5.874884 -140.794888 68.357626 -140.195956 -10.628756 -23.130313 8.236633 0.169068 -0.575728 0.040933 3.166403 -43.607431 -5.445020 175.087608 60.012246 175.067233 -1.699513 -40.176882 3.134975 0.087224 0.332450 0.030771
-82.891756 44.242224 20.347526 179.692120 -33.524677 -0.611563 -1.118232 20.155220 1.654452 -0.195560 2.544470 0.288211 -0.319855 4.166005 0.470233 -1.153378 17.323648 1.857029 -1.026868 17.952806 -1.973199 -0.639790 -6.839096 -1.834027 2.901472 0.730129 -9.430980 -12.984519 -6.917368 -6.974683 -149.410834 -59.367024 172.702399 -8.203176 1.554152 -37.152278 -3.661892 -0.489565 -0.632863 18.890593 -0.175259 2.447370 121.320466 -51.442436 -161.033391 20.753645 12.845884 28.562129 0.036120 -59.487281 5.859760 -140.818259 68.361429 -140.236613 -10.649699 -23.144530 8.247097 0.189136 -0.618632 0.051204 3.209738 -43.617121 -5.487080 175.073432 60.009413 175.059751 -1.706520 -40.178917 3.140562 0.090268 0.336257 0.031879
-82.895243 44.233252 20.348806 179.685879 -33.516976 -0.589057 -1.108696 20.153689 1.634293 -0.194388 2.541047 0.288077 -0.320203 4.163223 0.469889 -1.145807 17.321553 1.855015 -1.037618 17.964904 -1.966844 -0.650105 -6.825069 -1.821763 2.909602 0.728389 -9.434709 -12.998241 -6.887407 -6.949810 -149.384778 -59.372501 172.685831 -8.236532 1.623254 -37.096715 -3.687803 -0.489979 -0.606882 18.894059 -0.170504 2.443124 121.301356 -51.455854 -161.037428 20.765110 12.845157 28.604307 0.045084 -59.495587 5.846856 -140.811190 68.365751 -140.247008 -10.653631 -23.134449 8.251070 0.190888 -0.633061 0.051556 3.236918 -43.625779 -5.515107 175.052991 60.008300 175.042219 -1.722659 -40.180417 3.143830 0.093471 0.340768 0.035388
-82.898204 44.225602 20.349955 179.680821 -33.511090 -0.572586 -1.106326 20.149403 1.619768 -0.185923 2.540468 0.285960 -0.318401 4.161495 0.468940 -1.144641 17.320445 1.848698 -1.042149 17.975956 -1.957327 -0.663917 -6.808036 -1.810505 2.915011 0.729084 -9.432811 -13.009908 -6.858176 -6.927153 -149.231813 -59.399471 172.576779 -8.222664 1.644279 -37.045820 -3.720914 -0.490557 -0.571607 18.871587 -0.175721 2.458513 121.295071 -51.458029 -161.007948 20.764415 12.875317 28.626165 0.059137 -59.498907 5.837161 -140.768018 68.365677 -140.213215 -10.663764 -23.115343 8.251916 0.187734 -0.672735 0.061755 3.258545 -43.632109 -5.534891 175.039455 60.008175 175.031193 -1.736474 -40.182006 3.146095 0.095976 0.344684 0.040298
-82.900263 44.216775 20.354761 179.654028 -33.480259 -0.552010 -1.065368 20.121450 1.615212 -0.199160 2.537226 0.290451 -0.314161 4.160504 0.466072 -1.132008 17.316473 1.847111 -1.056341 17.988908 -1.948492 -0.686286 -6.774089 -1.798970 2.908975 0.735315 -9.430385 -13.022560 -6.843512 -6.910994 -149.050534 -59.429964 172.445862 -8.212425 1.653692 -37.002388 -3.746476 -0.486698 -0.554063 18.852074 -0.181575 2.474229 121.290385 -51.472863 -161.003861 20.759176 12.863020 28.630629 0.091080 -59.529293 5.828755 -140.677577 68.372906 -140.135078 -10.637271 -23.067154 8.243488 0.178828 -0.714625 0.070946 3.282546 -43.665043 -5.538743 175.049264 60.009001 175.033519 -1.739460 -40.185153 3.150205 0.095114 0.351361 0.042155
-82.900957 44.209493 20.359079 179.623029 -33.453913 -0.539223 -1.034997 20.095986 1.618061 -0.197349 2.536659 0.291829 -0.312498 4.160047 0.464125 -1.118749 17.314783 1.844051 -1.069222 17.996035 -1.937726 -0.698827 -6.764256 -1.790161 2.907459 0.739953 -9.428160 -13.035618 -6.828948 -6.895165 -148.902971 -59.450071 172.345624 -8.221211 1.666921 -36.973446 -3.768481 -0.485509 -0.537163 18.838718 -0.184399 2.486037 121.283308 -51.493206 -161.006407 20.761305 12.831746 28.641540 0.127989 -59.556805 5.827539 -140.563002 68.374529 -140.027572 -10.595677 -22.997399 8.229111 0.163033 -0.751260 0.074388 3.287565 -43.694446 -5.517192 175.076623 60.009043 175.044584 -1.743021 -40.186090 3.154805 0.098693 0.352363 0.043682
-82.899673 44.205159 20.360752 179.614948 -33.446854 -0.551862 -1.016345 20.089949 1.636997 -0.202487 2.535915 0.288361 -0.309568 4.160202 0.467418 -1.095120 17.315083 1.838945 -1.089246 17.996496 -1.923146 -0.712132 -6.756234 -1.782328 2.898655 0.741423 -9.426344 -13.040843 -6.802988 -6.876019 -148.769577 -59.463173 172.258269 -8.228725 1.677141 -36.955856 -3.800688 -0.480803 -0.517664 18.840285 -0.189055 2.484910 121.277956 -51.505705 -161.009830 20.738930 12.842922 28.605674 0.132445 -59.565187 5.841237 -140.469159 68.375948 -139.936180 -10.529589 -22.891280 8.188748 0.152673 -0.812422 0.095370 3.266747 -43.702943 -5.482643 175.105957 60.009507 175.061965 -1.730291 -40.189959 3.152730 0.093890 0.354685 0.043520
-82.895526 44.202359 20.361713 179.633110 -33.444572 -0.595942 -1.008680 20.089029 1.677075 -0.205222 2.536563 0.287497 -0.312231 4.159574 0.467847 -1.085945 17.316756 1.836988 -1.099980 17.999350 -1.916637 -0.725704 -6.755966 -1.774493 2.899863 0.742247 -9.434124 -13.039767 -6.773956 -6.856464 -148.639952 -59.475550 172.171163 -8.188988 1.657130 -36.960471 -3.825272 -0.475905 -0.501625 18.834733 -0.197268 2.498532 121.265627 -51.504652 -160.990714 20.719817 12.909235 28.498292 0.121558 -59.564995 5.856432 -140.438786 68.379374 -139.880273 -10.467455 -22.873710 8.157383 0.125035 -0.791258 0.098657 3.213720 -43.707154 -5.430857 175.122369 60.010775 175.074757 -1.699622 -40.175813 3.141804 0.076640 0.339690 0.036580
-82.897317 44.201024 20.361560 179.651905 -33.448685 -0.603490 -1.015106 20.093561 1.678481 -0.203805 2.536344 0.286703 -0.301548 4.162283 0.467421 -1.096143 17.316684 1.836866 -1.108370 17.999813 -1.912107 -0.740564 -6.756053 -1.765963 2.902178 0.744199 -9.444541 -13.033198 -6.747806 -6.835022 -148.521724 -59.493045 172.087966 -8.154661 1.632298 -36.962001 -3.849229 -0.475145 -0.485561 18.830356 -0.198219 2.511976 121.199787 -51.547936 -160.967584 20.702797 12.867065 28.467581 0.134519 -59.560557 5.830555 -140.435544 68.379646 -139.866092 -10.455950 -22.815515 8.139248 0.126928 -0.808244 0.101662 3.196153 -43.702478 -5.435168 175.133810 60.015581 175.083309 -1.688169 -40.172421 3.134500 0.076829 0.339960 0.038549
-82.898563 44.199442 20.362487 179.650836 -33.443724 -0.600972 -1.007457 20.088057 1.680121 -0.199498 2.538948 0.286073 -0.307087 4.160822 0.468111 -1.092987 17.318249 1.834202 -1.118341 18.001404 -1.908579 -0.754285 -6.758580 -1.757856 2.906717 0.746100 -9.457355 -13.023452 -6.718617 -6.811088 -148.501598 -59.493870 172.071155 -8.272713 1.725097 -36.889685 -3.873996 -0.469269 -0.465453 18.837028 -0.198973 2.515196 121.153920 -51.554291 -160.948202 20.696558 12.913056 28.414438 0.146692 -59.566017 5.820290 -140.431381 68.384290 -139.858691 -10.452518 -22.775435 8.131255 0.125501 -0.822806 0.101170 3.192628 -43.704913 -5.435600 175.124809 60.021223 175.072717 -1.690299 -40.170892 3.130073 0.078374 0.340671 0.038250
-82.900024 44.198757 20.362168 179.654590 -33.445953 -0.596593 -1.006511 20.089036 1.674702 -0.200267 2.539109 0.288683 -0.305443 4.161251 0.464409 -1.090224 17.319160 1.831894 -1.128170 18.002676 -1.900365 -0.759233 -6.760112 -1.755577 2.908271 0.747026 -9.463364 -12.979383 -6.672560 -6.799196 -148.411739 -59.508842 171.984799 -8.283132 1.761659 -36.845887 -3.905892 -0.464941 -0.450101 18.848140 -0.193648 2.538209 121.099039 -51.541014 -160.918885 20.697800 12.962263 28.376647 0.177023 -59.562661 5.790197 -140.479321 68.391485 -139.892805 -10.469186 -22.768178 8.131757 0.126563 -0.814550 0.097030 3.190784 -43.698809 -5.443931 175.117704 60.027164 175.064382 -1.687342 -40.168593 3.125560 0.075944 0.340559 0.037089
-82.900185 44.198531 20.360786 179.664531 -33.454524 -0.599812 -1.009579 20.095866 1.672265 -0.198598 2.540912 0.289441 -0.304013 4.159742 0.462033 -1.088593 17.319669 1.830317 -1.139800 18.004299 -1.894416 -0.762424 -6.760551 -1.750412 2.903191 0.747431 -9.458801 -12.943150 -6.634918 -6.795575 -148.308131 -59.533274 171.897262 -8.262573 1.787270 -36.804485 -3.953752 -0.457628 -0.434405 18.877331 -0.196110 2.538407 121.045396 -51.546371 -160.895561 20.684163 12.961920 28.376449 0.178704 -59.553033 5.779193 -140.564855 68.400572 -139.966295 -10.489153 -22.774450 8.132037 0.134845 -0.788779 0.086684 3.196315 -43.685633 -5.451109 175.106742 60.031755 175.062128 -1.691547 -40.165897 3.127915 0.074135 0.339292 0.036251
-82.904224 44.197658 20.359540 179.651461 -33.461398 -0.563772 -1.003956 20.099704 1.641543 -0.197435 2.540547 0.287175 -0.304194 4.160355 0.463429 -1.086642 17.320180 1.828145 -1.144429 18.006805 -1.891170 -0.773117 -6.757614 -1.742206 2.904564 0.748566 -9.465844 -12.926176 -6.602382 -6.779981 -148.247934 -59.563048 171.853497 -8.257691 1.827047 -36.739403 -3.975129 -0.454002 -0.423828 18.887789 -0.196512 2.537046 120.992744 -51.555859 -160.877144 20.673781 12.962217 28.377894 0.197363 -59.552328 5.744573 -140.671416 68.406557 -140.080110 -10.506207 -22.734248 8.123852 0.168981 -0.821667 0.085342 3.246045 -43.676482 -5.492806 175.100303 60.034143 175.061549 -1.720284 -40.165657 3.140469 0.089567 0.342461 0.043567
-82.908421 44.195351 20.359669 179.649405 -33.458728 -0.530150 -1.009428 20.093074 1.605929 -0.196821 2.542719 0.289649 -0.304264 4.158195 0.460240 -1.085088 17.320401 1.826481 -1.151330 18.013484 -1.885928 -0.780726 -6.753080 -1.736162 2.914515 0.746006 -9.488426 -12.926681 -6.568722 -6.751060 -148.205994 -59.605478 171.830297 -8.251373 1.874795 -36.647304 -4.005104 -0.452675 -0.412440 18.891115 -0.188080 2.544452 120.968130 -51.556539 -160.863754 20.668870 12.982190 28.370725 0.209836 -59.556021 5.712987 -140.756571 68.406382 -140.171666 -10.554478 -22.800614 8.141330 0.185693 -0.775003 0.071082 3.290855 -43.675588 -5.540874 175.096377 60.039051 175.061511 -1.730615 -40.153016 3.148692 0.092493 0.335558 0.045521
